<svg xmlns="http://www.w3.org/2000/svg" width="1920" height="1080" viewBox="0 0 1920 1080" preserveAspectRatio="xMidYMid slice">
  <defs>
    <linearGradient id="bg" x1="0" y1="0" x2="1" y2="1">
      <stop offset="0%" stop-color="#0a0e14"/>
      <stop offset="100%" stop-color="#10151f"/>
    </linearGradient>
    <linearGradient id="wave1" x1="0" y1="0" x2="1" y2="0">
      <stop offset="0%" stop-color="#2563eb" stop-opacity="0.25"/>
      <stop offset="100%" stop-color="#7c3aed" stop-opacity="0.25"/>
    </linearGradient>
    <linearGradient id="wave2" x1="0" y1="0" x2="1" y2="0">
      <stop offset="0%" stop-color="#22d3ee" stop-opacity="0.18"/>
      <stop offset="100%" stop-color="#34d399" stop-opacity="0.18"/>
    </linearGradient>
    <linearGradient id="wave3" x1="0" y1="0" x2="1" y2="0">
      <stop offset="0%" stop-color="#f59e0b" stop-opacity="0.12"/>
      <stop offset="100%" stop-color="#ef4444" stop-opacity="0.12"/>
    </linearGradient>
  </defs>
  <rect width="100%" height="100%" fill="url(#bg)"/>
  <g transform="translate(0, 720)">
    <path d="M0,80 C320,0 640,160 960,80 C1280,0 1600,160 1920,80 L1920,360 L0,360 Z" fill="url(#wave1)"/>
  </g>
  <g transform="translate(0, 780)">
    <path d="M0,60 C320,-20 640,140 960,60 C1280,-20 1600,140 1920,60 L1920,360 L0,360 Z" fill="url(#wave2)"/>
  </g>
  <g transform="translate(0, 840)">
    <path d="M0,50 C320,-30 640,130 960,50 C1280,-30 1600,130 1920,50 L1920,360 L0,360 Z" fill="url(#wave3)"/>
  </g>
</svg>
